<?xml version="1.0" encoding="utf-8"?>
<!-- Generator: Adobe Illustrator 16.0.0, SVG Export Plug-In . SVG Version: 6.00 Build 0)  -->
<!DOCTYPE svg PUBLIC "-//W3C//DTD SVG 1.1//EN" "http://www.w3.org/Graphics/SVG/1.1/DTD/svg11.dtd">
<svg version="1.1"
	 id="svg2" xmlns:dc="http://purl.org/dc/elements/1.1/" xmlns:cc="http://creativecommons.org/ns#" xmlns:rdf="http://www.w3.org/1999/02/22-rdf-syntax-ns#" xmlns:svg="http://www.w3.org/2000/svg" xmlns:sodipodi="http://sodipodi.sourceforge.net/DTD/sodipodi-0.dtd" xmlns:inkscape="http://www.inkscape.org/namespaces/inkscape" inkscape:output_extension="org.inkscape.output.svg.inkscape" sodipodi:docbase="/home/dooteo/src/inkscape/share/templates" sodipodi:docname="fishing pole.svg" inkscape:version="0.46" sodipodi:version="0.32"
	 xmlns="http://www.w3.org/2000/svg" xmlns:xlink="http://www.w3.org/1999/xlink" x="0px" y="0px" width="1080px" height="1080px"
	 viewBox="0 0 1080 1080" enable-background="new 0 0 1080 1080" xml:space="preserve">
<defs>
	
	
		<inkscape:perspective  id="perspective7" inkscape:vp_z="744.09448 : 526.18109 : 1" inkscape:vp_y="0 : 1000 : 0" inkscape:vp_x="0 : 526.18109 : 1" sodipodi:type="inkscape:persp3d" inkscape:persp3d-origin="372.04724 : 350.78739 : 1">
		</inkscape:perspective>
	
		<inkscape:perspective  id="perspective2443" inkscape:vp_z="744.09448 : 526.18109 : 1" inkscape:vp_y="0 : 1000 : 0" inkscape:vp_x="0 : 526.18109 : 1" sodipodi:type="inkscape:persp3d" inkscape:persp3d-origin="372.04724 : 350.78739 : 1">
		</inkscape:perspective>
</defs>
<sodipodi:namedview  units="in" showgrid="false" inkscape:cy="715.17805" inkscape:cx="411.77005" inkscape:zoom="0.35" borderopacity="1.0" bordercolor="#666666" pagecolor="#ffffff" id="base" inkscape:window-y="29" inkscape:window-x="22" inkscape:window-height="683" inkscape:window-width="872" inkscape:current-layer="layer1" inkscape:document-units="in" inkscape:pageshadow="2" inkscape:pageopacity="0.0">
	</sodipodi:namedview>
<g id="layer1" inkscape:label="Capa 1" inkscape:groupmode="layer">
	<path id="path2449" d="M106.436,757.171c-7.032-7.033-8.187-18.133-2.404-23.105c1.973-1.697,11.889-7.494,22.036-12.883
		c25.277-13.424,73.015-38.975,89.169-47.729c47.798-25.896,60.18-31.6,66.057-30.424c6.143,1.229,12.023-1.666,77.434-38.111
		c12.966-7.225,56.941-31.508,97.725-53.962c40.783-22.455,73.749-41.476,73.259-42.271c-0.491-0.794,4.171-3.339,10.359-5.655
		c6.189-2.316,31.798-15.636,56.908-29.6c25.11-13.964,65.488-36.241,89.728-49.504c24.24-13.263,56.064-30.772,70.721-38.909
		c29.71-16.495,83.039-45.896,159.89-88.152c28.186-15.498,54.665-30.367,58.843-33.043l7.597-4.866l8.29,11.577
		c4.56,6.367,8.29,12.349,8.29,13.293c0,3.939-3.903,1.195-9.225-6.483c-6.158-8.886-8.227-9.665-14.405-5.425
		c-3.26,2.236-68.179,39.871-94.237,54.63c-15.441,8.746-75.926,43.696-76.606,44.265c-0.418,0.351,2.118,5.739,5.638,11.974
		c6.981,12.371,7.339,13.449,4.464,13.449c-1.063,0-3.506-2.662-5.428-5.915s-6.531-7.363-10.243-9.133l-6.75-3.219l-45.731,25.885
		c-48.446,27.421-60.814,34.39-91.644,51.633c-10.595,5.926-22.795,13.004-27.111,15.729l-7.847,4.954l5.754,9.742
		c3.164,5.358,7.026,11.776,8.584,14.262c4.893,7.809-0.034,8.023-6.873,0.299c-3.597-4.062-9.991-9.415-14.21-11.896l-7.67-4.51
		l-23.078,12.798c-12.692,7.039-27.229,15.025-32.302,17.748c-5.073,2.723-13.375,7.504-18.449,10.624
		c-5.073,3.121-23.983,13.808-42.021,23.75c-18.039,9.94-33.207,18.405-33.706,18.81c-0.499,0.406,3.147,9.012,8.104,19.123
		c6.932,14.143,8.454,18.947,6.591,20.811c-1.862,1.861-3.355,0.311-6.466-6.721c-3.314-7.494-6.238-10.32-16.219-15.678
		l-12.176-6.535l-40.71,22.744c-22.391,12.51-47.261,26.326-55.266,30.701c-8.006,4.375-15.958,9.564-17.671,11.529
		c-3.436,3.941-6.421,29.197-3.451,29.197c1.021,0,1.855-1.184,1.855-2.633c0-1.447,2.625-4.184,5.833-6.078
		c5.73-3.385,5.938-3.338,11.708,2.686c3.319,3.465,7.149,5.643,8.804,5.008c4.666-1.791,11.831,4.186,20.257,16.9
		c6.905,10.418,14.893,25.572,14.893,28.26c0,2.783-5.814,0.41-6.629-2.705c-1.73-6.617-18.57-31.188-21.375-31.188
		c-3.73,0-3.438,1.986,1.355,9.225c5.187,7.83,5.138,8.449-0.979,12.457c-6.236,4.086-16.959,6.855-31.819,8.219
		c-6.201,0.568-14.684,2.494-18.851,4.277c-4.167,1.783-9.052,2.678-10.854,1.984c-4.66-1.787-10.154-15.57-7.333-18.393
		c1.205-1.205,2.19-3.807,2.19-5.781c0-1.977,4.215-6.492,9.368-10.037c6.476-4.455,8.989-7.432,8.142-9.643
		c-0.701-1.824,0.667-5.211,3.19-7.896c7.129-7.588,1.539-15.02-9.26-12.311c-2.949,0.74-6.468,4.258-8.707,8.703
		c-3.829,7.602-13.652,13.492-89.853,53.877c-10.147,5.377-33.352,17.762-51.567,27.52c-18.215,9.76-34.198,17.744-35.518,17.744
		C113.508,763.163,109.732,760.466,106.436,757.171z M452.998,576.581c-1.837-3.432-2.968-3.926-4.778-2.088
		c-1.802,1.828-1.422,3.109,1.577,5.322C454.839,583.538,456.061,582.302,452.998,576.581z M619.964,481.729
		c-0.733-1.912-2.55-2.737-4.436-2.014c-2.782,1.068-2.714,1.576,0.533,3.949C620.431,486.859,621.692,486.233,619.964,481.729z
		 M803.549,375.738c0-1.127-0.923-2.05-2.05-2.05c-1.128,0-2.05,0.922-2.05,2.05s0.922,2.05,2.05,2.05
		C802.626,377.788,803.549,376.865,803.549,375.738z M366.221,679.63c-14.982-23.494-17.736-28.533-16.349-29.92
		c2.485-2.486,4.632-1.367,11.185,5.834c3.591,3.947,8.326,7.176,10.521,7.176c3.188,0,3.745,0.988,2.761,4.91
		c-0.678,2.699,0.145,8.205,1.827,12.232C383.731,697.97,377.826,697.831,366.221,679.63z M343.695,653.153
		c-2.054-2.055-1.644-10.686,0.718-15.098c3.102-5.797,20.788-10.184,41.045-10.184c16.006,0,18.998-0.645,29.863-6.432
		c44.903-23.918,47.948-25.152,47.948-19.459c0,1.588-4.088,3.953-9.401,5.441c-5.171,1.447-15.549,6.672-23.061,11.607
		c-16.732,10.996-21.865,12.469-51.115,14.67c-20.22,1.523-23.758,2.354-28.33,6.648c-3.494,3.283-4.931,6.441-4.339,9.539
		C347.891,654.423,346.414,655.872,343.695,653.153z M473.521,594.208c0-1.604,3.093-3.938,6.873-5.186
		c3.78-1.246,9.084-4.646,11.786-7.555c12.879-13.859,78.325-62.24,84.193-62.24c0.979,0,8.91-3.583,17.622-7.963
		c18.97-9.536,31.215-13.368,31.215-9.769c0,1.34-6.688,5.03-14.861,8.202c-16.683,6.472-31.198,13.751-45.573,22.854
		c-14.805,9.375-48.11,34.537-58.457,44.162c-10.559,9.822-26.186,20.41-30.125,20.41
		C474.723,597.124,473.521,595.812,473.521,594.208z M637.882,496.478c0.506-1.58,9.623-5.723,20.261-9.206
		c35.363-11.579,50.995-21.883,90.627-59.738c13.891-13.268,29.823-26.561,35.405-29.541c11.359-6.063,23.474-9.298,23.474-6.269
		c0,1.08-2.998,3.159-6.662,4.62c-15.005,5.982-36.466,21.955-54.892,40.853c-27.304,28.005-56.884,47.015-86.34,55.486
		c-8.289,2.384-16.809,4.859-18.933,5.501C638.121,499.001,637.237,498.488,637.882,496.478z M817.897,385.42
		c0-4.157,15.541-13.135,37.84-21.861c60.093-23.514,71.118-30.56,119.267-76.219c5.797-5.498,11.102-9.996,11.786-9.996
		c8.171,0-28.946,36.686-57.377,56.711c-18.823,13.258-32.287,19.761-63.046,30.449c-12.238,4.253-27.575,11.287-34.081,15.632
		C819.344,388.779,817.897,389.311,817.897,385.42z"/>
</g>
</svg>
